# xmcd CD database file
#
# Track frame offsets:
#	150
#	30100
#	66530
#	93756
#	111171
#	137147
#	162706
#	187672
#	212148
#	230119
#
# Disc length: 3275 seconds
#
# Revision: 0
# Processed by: cddbd v1.5.1PL2 Copyright (c) Steve Scherf et al.
# Submitted via: CDex 1.51
#
DISCID=880cc90a
DTITLE=Jackson, Javon - Have you heard
DYEAR=2005
DGENRE=Jazz
TTITLE0=In this corner
TTITLE1=Dance floor
TTITLE2=Have you heard
TTITLE3=Breaking up somebody's home
TTITLE4=Dr. Smith
TTITLE5=Summertime
TTITLE6=Move on up
TTITLE7=Oulk
TTITLE8=That's the way i feel about Cha'
TTITLE9=Funky in here (reprise)
EXTD=YEAR: 2005
EXTT0=
EXTT1=
EXTT2=
EXTT3=
EXTT4=
EXTT5=
EXTT6=
EXTT7=
EXTT8=
EXTT9=
PLAYORDER=
